HIERARCHY
ROOT Hips
{
	OFFSET -14.64140 90.27770 -84.91600
	CHANNELS 6 Xposition Yposition Zposition Zrotation Xrotation Yrotation
	JOINT Spine
	{
		OFFSET 0.00000 13.20850 -1.60436
		CHANNELS 3 Zrotation Xrotation Yrotation
		JOINT Spine1
		{
			OFFSET 0.00000 8.61716 0.00000
			CHANNELS 3 Zrotation Xrotation Yrotation
			JOINT Spine2
			{
				OFFSET 0.00000 8.61717 0.00000
				CHANNELS 3 Zrotation Xrotation Yrotation
				JOINT Spine3
				{
					OFFSET 0.00000 8.61717 0.00000
					CHANNELS 3 Zrotation Xrotation Yrotation
					JOINT Neck
					{
						OFFSET 0.00000 11.07920 1.10792
						CHANNELS 3 Zrotation Xrotation Yrotation
						JOINT Neck1
						{
							OFFSET 0.00000 7.08032 0.00000
							CHANNELS 3 Zrotation Xrotation Yrotation
							JOINT Head
							{
								OFFSET 0.00000 7.08031 0.00000
								CHANNELS 3 Zrotation Xrotation Yrotation
								End site
								{
									OFFSET 0.00000 0.00000 0.00000
								}
							}
						}
					}
					JOINT RightShoulder
					{
						OFFSET -0.01000 7.91373 5.19711
						CHANNELS 3 Zrotation Xrotation Yrotation
						JOINT RightArm
						{
							OFFSET -18.41580 0.00000 0.00000
							CHANNELS 3 Zrotation Xrotation Yrotation
							JOINT RightForeArm
							{
								OFFSET -29.11090 0.00000 0.00000
								CHANNELS 3 Zrotation Xrotation Yrotation
								JOINT RightHand
								{
									OFFSET -24.65040 0.00000 0.00000
									CHANNELS 3 Zrotation Xrotation Yrotation
									JOINT RightHandThumb1
									{
										OFFSET -5.35114 -0.85590 3.97906
										CHANNELS 3 Zrotation Xrotation Yrotation
										JOINT RightHandThumb2
										{
											OFFSET -4.52789 0.00000 0.00000
											CHANNELS 3 Zrotation Xrotation Yrotation
											JOINT RightHandThumb3
											{
												OFFSET -2.46976 0.00000 0.00000
												CHANNELS 3 Zrotation Xrotation Yrotation
												End site
												{
													OFFSET 0.00000 0.00000 0.00000
												}
											}
										}
									}
									JOINT RightHandIndex1
									{
										OFFSET -14.26970 0.00000 2.88139
										CHANNELS 3 Zrotation Xrotation Yrotation
										JOINT RightHandIndex2
										{
											OFFSET -5.48836 0.00000 0.00000
											CHANNELS 3 Zrotation Xrotation Yrotation
											JOINT RightHandIndex3
											{
												OFFSET -3.01859 0.00000 0.00000
												CHANNELS 3 Zrotation Xrotation Yrotation
												End site
												{
													OFFSET 0.00000 0.00000 0.00000
												}
											}
										}
									}
									JOINT RightHandMiddle1
									{
										OFFSET -14.26970 0.00000 -0.09147
										CHANNELS 3 Zrotation Xrotation Yrotation
										JOINT RightHandMiddle2
										{
											OFFSET -6.17441 0.00000 0.00000
											CHANNELS 3 Zrotation Xrotation Yrotation
											JOINT RightHandMiddle3
											{
												OFFSET -3.56743 0.00000 0.00000
												CHANNELS 3 Zrotation Xrotation Yrotation
												End site
												{
													OFFSET 0.00000 0.00000 0.00000
												}
											}
										}
									}
									JOINT RightHandRing1
									{
										OFFSET -12.69180 0.00000 -3.06433
										CHANNELS 3 Zrotation Xrotation Yrotation
										JOINT RightHandRing2
										{
											OFFSET -5.62556 0.00000 0.00000
											CHANNELS 3 Zrotation Xrotation Yrotation
											JOINT RightHandRing3
											{
												OFFSET -3.56744 0.00000 0.00000
												CHANNELS 3 Zrotation Xrotation Yrotation
												End site
												{
													OFFSET 0.00000 0.00000 0.00000
												}
											}
										}
									}
									JOINT RightHandPinky1
									{
										OFFSET -11.11390 0.00000 -6.03719
										CHANNELS 3 Zrotation Xrotation Yrotation
										JOINT RightHandPinky2
										{
											OFFSET -4.52789 0.00000 0.00000
											CHANNELS 3 Zrotation Xrotation Yrotation
											JOINT RightHandPinky3
											{
												OFFSET -2.46976 0.00000 0.00000
												CHANNELS 3 Zrotation Xrotation Yrotation
												End site
												{
													OFFSET 0.00000 0.00000 0.00000
												}
											}
										}
									}
								}
							}
						}
					}
					JOINT LeftShoulder
					{
						OFFSET 0.01000 7.91373 5.19711
						CHANNELS 3 Zrotation Xrotation Yrotation
						JOINT LeftArm
						{
							OFFSET 18.41580 0.00000 0.00000
							CHANNELS 3 Zrotation Xrotation Yrotation
							JOINT LeftForeArm
							{
								OFFSET 29.11090 0.00000 0.00000
								CHANNELS 3 Zrotation Xrotation Yrotation
								JOINT LeftHand
								{
									OFFSET 24.65040 0.00000 0.00000
									CHANNELS 3 Zrotation Xrotation Yrotation
									JOINT LeftHandThumb1
									{
										OFFSET 5.35114 -0.85590 3.97906
										CHANNELS 3 Zrotation Xrotation Yrotation
										JOINT LeftHandThumb2
										{
											OFFSET 4.52789 0.00000 0.00000
											CHANNELS 3 Zrotation Xrotation Yrotation
											JOINT LeftHandThumb3
											{
												OFFSET 2.46977 0.00000 0.00000
												CHANNELS 3 Zrotation Xrotation Yrotation
												End site
												{
													OFFSET 0.00000 0.00000 0.00000
												}
											}
										}
									}
									JOINT LeftHandIndex1
									{
										OFFSET 14.26970 0.00000 2.88139
										CHANNELS 3 Zrotation Xrotation Yrotation
										JOINT LeftHandIndex2
										{
											OFFSET 5.48836 0.00000 0.00000
											CHANNELS 3 Zrotation Xrotation Yrotation
											JOINT LeftHandIndex3
											{
												OFFSET 3.01859 0.00000 0.00000
												CHANNELS 3 Zrotation Xrotation Yrotation
												End site
												{
													OFFSET 0.00000 0.00000 0.00000
												}
											}
										}
									}
									JOINT LeftHandMiddle1
									{
										OFFSET 14.26970 0.00000 -0.09147
										CHANNELS 3 Zrotation Xrotation Yrotation
										JOINT LeftHandMiddle2
										{
											OFFSET 6.17440 0.00000 0.00000
											CHANNELS 3 Zrotation Xrotation Yrotation
											JOINT LeftHandMiddle3
											{
												OFFSET 3.56744 0.00000 0.00000
												CHANNELS 3 Zrotation Xrotation Yrotation
												End site
												{
													OFFSET 0.00000 0.00000 0.00000
												}
											}
										}
									}
									JOINT LeftHandRing1
									{
										OFFSET 12.69180 0.00000 -3.06433
										CHANNELS 3 Zrotation Xrotation Yrotation
										JOINT LeftHandRing2
										{
											OFFSET 5.62556 0.00000 0.00000
											CHANNELS 3 Zrotation Xrotation Yrotation
											JOINT LeftHandRing3
											{
												OFFSET 3.56744 0.00000 0.00000
												CHANNELS 3 Zrotation Xrotation Yrotation
												End site
												{
													OFFSET 0.00000 0.00000 0.00000
												}
											}
										}
									}
									JOINT LeftHandPinky1
									{
										OFFSET 11.11390 0.00000 -6.03719
										CHANNELS 3 Zrotation Xrotation Yrotation
										JOINT LeftHandPinky2
										{
											OFFSET 4.52789 0.00000 0.00000
											CHANNELS 3 Zrotation Xrotation Yrotation
											JOINT LeftHandPinky3
											{
												OFFSET 2.46976 0.00000 0.00000
												CHANNELS 3 Zrotation Xrotation Yrotation
												End site
												{
													OFFSET 0.00000 0.00000 0.00000
												}
											}
										}
									}
								}
							}
						}
					}
					JOINT pCube4
					{
						OFFSET 0.00000 10.91090 1.10792
						CHANNELS 3 Zrotation Xrotation Yrotation
						End site
						{
							OFFSET 0.00000 0.00000 0.00000
						}
					}
				}
			}
		}
	}
	JOINT RightUpLeg
	{
		OFFSET -9.98441 0.00000 0.00000
		CHANNELS 3 Zrotation Xrotation Yrotation
		JOINT RightLeg
		{
			OFFSET 0.00000 -42.11790 0.00000
			CHANNELS 3 Zrotation Xrotation Yrotation
			JOINT RightFoot
			{
				OFFSET 0.00000 -45.00020 -0.00001
				CHANNELS 3 Zrotation Xrotation Yrotation
				JOINT RightForeFoot
				{
					OFFSET 0.00000 -3.74820 0.00000
					CHANNELS 3 Zrotation Xrotation Yrotation
					JOINT RightToeBase
					{
						OFFSET 0.00000 0.06325 14.43120
						CHANNELS 3 Zrotation Xrotation Yrotation
						End site
						{
							OFFSET 0.00000 0.00000 0.00000
						}
					}
				}
			}
		}
	}
	JOINT LeftUpLeg
	{
		OFFSET 9.98441 0.00000 0.00000
		CHANNELS 3 Zrotation Xrotation Yrotation
		JOINT LeftLeg
		{
			OFFSET 0.00000 -42.11800 0.00000
			CHANNELS 3 Zrotation Xrotation Yrotation
			JOINT LeftFoot
			{
				OFFSET 0.00000 -45.00070 0.00000
				CHANNELS 3 Zrotation Xrotation Yrotation
				JOINT LeftForeFoot
				{
					OFFSET 0.00000 -3.74824 0.00000
					CHANNELS 3 Zrotation Xrotation Yrotation
					JOINT LeftToeBase
					{
						OFFSET 0.00000 0.06325 14.43110
						CHANNELS 3 Zrotation Xrotation Yrotation
						End site
						{
							OFFSET 0.00000 0.00000 0.00000
						}
					}
				}
			}
		}
	}
}
MOTION
Frames: 4
Frame Time: 0.050000
-0.042632127049348795 0.002639895622691568 -0.007769144668679809 0.00092701769037393 -0.02272253357235357 -0.0018874697273246841 5.1080795312395475 6.661400248938096 -1.8253279767708002 -1.0007319281486107 4.197482462364273 0.46913090221573817 -0.6126914602640187 -0.5751011605147915 1.0685449826494193 -0.04321677478870446 0.0697751071334328 -0.26129118947144003 -0.39124157475629345 14.028616784016748 -1.378699142812202 -0.3486692776131027 -1.8501117016881834 -4.015708259840388 0.25293381001475623 -19.694727578751664 -0.32367949853229966 -12.689176909337428 3.9860252220402375 -17.475870606815125 77.33322874026122 -6.577192378888801 15.30807457437929 10.185334912044823 -5.031520294749688 70.66220846807154 2.101087403357188 0.15716214824026584 0.10827790666308412 4.517466299143496 -0.10818119486335956 -1.6393443548393738 -0.031528166162844054 0.02210688741387358 -56.25879870127553 -0.012413015190788074 0.01257491895868265 -56.24606246293556 -38.75807978544507 -0.04534153234653742 -0.025002264781869045 -0.007879267973642514 0.022096955161716562 0.01011632503206353 -0.021446320312296152 -0.03882965387176262 -0.034461853234636776 -36.67295122994054 -0.04507284091680202 -0.011905331703748252 0.01572487977103025 0.020175761326188573 0.008199571553242272 -0.0299199022099425 0.024051356592256323 0.013521531512691353 -19.72268415394469 -0.0023266829086782035 -0.044819900080571275 0.01209544355255295 -0.04546955750683895 0.00035959079885576536 -0.022507480921244497 0.03190866899290084 0.022828711410420303 24.05175858830287 0.03741027124299239 0.0420487904962789 28.872120413403774 -0.03135491650423765 -0.014074252341818591 28.89122179176217 -8.334418240586603e-05 -0.034803978378735737 12.166006050745946 2.6157531162874723 14.957195377265224 -71.92891874077539 7.595592865051119 -20.778772712064914 -3.874510564390172 -7.298559146498808 -61.99687145949452 -4.49814485017241 2.413873740443319 -3.621760341164052 -0.5113776216660721 0.03323044030568493 -8.113778682734125 -0.04660324076161797 0.017511021205887115 44.60423932416619 -0.014565665743102033 -0.025845909008968472 44.557906162930806 12.415795038478002 -0.034560692689847766 0.0031932722093380083 -0.0496766218106177 0.016610718289644253 -0.004504792377953274 -0.04105373890930751 -0.039815331555425985 0.025108774249493836 11.119968383107075 -0.008743544658162508 -0.0029656837662796857 -0.03460376537605992 0.0073659057701158295 0.009384452174971566 -0.006283848072003802 0.041639956679818554 -0.007061638845388256 4.8136349711092175 0.03206231672792225 0.02380227620152574 -0.02860224967782358 -0.02052594548878914 0.016432999206078738 0.021254146664918226 0.03425709076861498 -0.04337712367581653 -5.570106463718264 0.039105429011795166 0.00919255282355717 -6.749742700488929 -0.039911747236745405 -0.02429135163943373 -6.750811868409012 0.03342173026033391 0.023784242443306916 0.008621356474917328 -0.04096235561915981 0.04065087072124189 8.009936718507156 3.473018711922994 -19.235081631716685 0.039166120044832234 10.390818004123767 0.05764879648062997 -5.595205980519579 -15.684549612257774 3.2276710828792416 0.021888060302904327 -0.04882958269070999 0.03957079593132171 0.004274780642456042 4.712891692797292 -0.02347579773261465 12.46298919010076 -8.20689362478679 6.869625287937479 0.024848201600081575 46.39913271431092 0.025526542217901304 -4.298972455773676 -14.77776161232903 -3.8307397730532124 -0.03471357770330614 -0.004042255690765729 0.0011655687857193024 -0.005992787357027652 -10.736038487871907 0.025842789086845303 
-0.019828478989731165 -0.0342000079688012 0.005519273677500598 0.009687983857721141 -0.005416860080960881 -0.015816236959519028 5.10355705548006 6.645494321824479 -1.8502366124566614 -1.011077788460248 4.203854057348579 0.3843726652431402 -0.6969230378953234 -0.5455900892982513 1.0377546959046737 0.06264489208990152 0.07382607168083098 -0.23359431841176193 -0.4239312230452184 14.042047769524423 -1.48995770943945 -0.40631220346609825 -1.8115228668600551 -4.345514507675909 0.26193619615966185 -19.624546587367696 -0.35398225640657716 -12.436919449483556 3.8376675785615206 -17.549064612588282 76.05598048554927 -5.353953503042764 14.81540663055175 11.637750293258637 -4.912037246499421 71.66805747421955 2.795513025448025 0.12426102584083354 -0.05542097630076371 4.559624735679202 -0.1396438525636141 -1.6145931497095485 -0.021869197144438836 -0.02498735663808512 -56.2707426178787 0.04294235309201229 0.028554604074033332 -56.23889743411253 -38.72672950553129 0.019113725717507506 0.009986674347977925 0.025860724952590702 0.0009201144357828359 -0.019955902552716526 -0.03887176975400923 0.014549542472078642 0.008077113452707164 -36.7158043060823 0.005362478863788508 0.03188249621455297 0.032417437581966524 -0.04204251513355112 0.04451422664299282 0.04464090280017743 0.0016207404421671972 0.004814580069241192 -19.77363546822779 0.025117617420687757 0.027057782702270133 -0.03319352259435614 0.0016445404290820306 0.013072509815771221 0.035536350626650254 0.0016154493974928354 0.03279335009087695 24.078682934172456 0.0013071119164284667 0.015484030822906671 28.87442349176284 -0.014042244626836276 -0.038850415735100834 28.85680326614174 0.04842292808330152 -0.018953274617749618 11.89239372125721 2.5282532233257107 14.988829977816547 -71.1029518283849 7.857255956420307 -20.23376126846812 -5.132583027179043 -7.0595966149223255 -63.02934120357582 -5.233911554390163 2.2421715953840557 -3.4454092569522015 -0.516728932443161 0.051051315429667496 -8.117393611850462 0.008921320850133849 -0.022821617534393136 44.55333995232663 -0.00470064723722337 -0.03326649913620766 44.561848936733 12.490224853771918 0.036820840423212355 -0.0021998088322625264 -0.04922706457754619 -0.02311401576319793 -0.015273463462434468 -0.009887667857988858 0.04433281951744048 0.015440168646833055 11.116412362897872 -0.020585799213840336 -0.008171340664690396 0.020023184980827693 -0.017009432904806172 0.013122574058795225 0.04206037057856782 -0.023121092780604525 -0.01255267123067109 4.789377647531777 0.013205886038334667 -0.020472117773992556 -0.01245610526413199 -0.00628041135376603 0.04157611839679872 0.021715730207391384 -0.010069049116944008 -0.02399921842074639 -5.588229747592666 -0.009985844356210518 -0.015419925739272177 -6.696849897101819 0.03274740748443036 0.026209267891649218 -6.675944717054782 0.013687775605601386 0.042032235865476435 0.04914598668581863 0.004328071251091819 0.02176121356802798 8.038135447586297 3.509873803421943 -19.212476504264274 -0.01245823398629949 10.397906243854615 0.016128429181057696 -5.626751597033975 -15.686117561392173 3.1675091914494105 -0.0260579607007291 -0.01866417408819322 -0.02374602784811724 0.0008969166030890977 4.6867169099829855 0.03861760636605433 12.435366158267257 -8.249303060394212 6.87116626739446 -0.013850090621327442 46.36531189647884 0.023820540954726868 -4.27926634543513 -14.749271195538249 -3.808678367180403 0.013377315304121938 0.039899102033504726 0.0005380648385445382 0.005733327047578869 -10.754759638503971 0.02793821535986729 
0.01699188011481492 -0.040207282200202706 -0.013434723383768488 0.014089925961548037 0.010436389125515885 0.0440540155008458 5.075547515535497 6.729358466278303 -1.8603632004102235 -1.0353557596321903 4.314603290679648 0.44620189240009 -0.6176772168373684 -0.4916449359593159 1.0258811230983396 0.1472984485112058 0.10895655281111241 -0.26051218995411085 -0.3780309150881173 14.044932422318759 -1.7981365141178478 -0.37894349086443246 -1.826390008812753 -5.1044768278947545 0.29536640435524475 -19.701086239917633 -0.45440022129166024 -12.296144896897887 3.770967625325751 -17.609846409950507 74.8208638531545 -4.165524737706145 14.694773585312259 12.432326686893031 -5.340922621053267 72.1686869180707 3.3088034049501833 0.09367225543665604 -0.19461449698561797 4.564681794416795 -0.16852636825534592 -1.6263236587349337 0.008469157645177573 -0.01898866674866919 -56.187255464479435 0.005378204747719619 -0.02841985383311542 -56.22076702542407 -38.7440267769234 -0.016515233088933656 0.020636465567720943 -0.004067023934323156 -0.025319261236146324 0.011311863510685895 -0.00391776886301107 -0.049782504064331067 0.025140088156298313 -36.66663554776662 0.046696335712079366 0.02740224856195553 -0.03952301795460457 -0.03239399106772332 -0.021580400924241697 0.0238644792064606 0.039717152498300545 -0.011125381103846189 -19.755740891835845 -0.03961036025200292 -0.044345917710437215 0.0014502094357705028 -0.008548897205577218 0.02639171477531151 0.016493136146858895 0.04963852769298203 -0.01599769163405604 24.028661482038814 -0.0472753639237975 -0.03349983845250372 28.843247904399515 0.026754148979091157 0.0376011904897697 28.903825051024505 0.03725356747483891 -0.006115925375166083 11.633456487887178 2.477735812212066 15.02359410993252 -70.58171098357163 7.995259367356115 -19.627759082296627 -6.203228858169231 -7.6890594255239915 -63.487234956309294 -5.783253398514421 1.9268853614383075 -3.09593757663558 -0.5234031261949876 0.019905025267809087 -8.080233566394115 -0.010352085067189837 -0.012980963913202309 44.56452548261825 0.027897911914585363 -0.014759778136399592 44.595245186510255 12.50799053394744 0.020449124517724366 0.019319609451678994 0.017207789721488127 0.04156739522923807 0.015430780899499771 -0.03230074020431837 -0.026644593614823048 -0.03599951389104936 11.062124630631695 0.030128015493191093 -0.027781956926729977 -0.024593564733966664 -0.03998387749463604 -0.01351163002024834 0.01209678525340765 -0.03999933749568423 -0.020898754896404935 4.765590101982343 0.030909890961755677 0.029930629466309533 -0.012228496354704943 -0.02100361654184217 -0.002932960120477821 0.01429402906914849 0.0496201132937865 -0.005190987288003865 -5.578893469781544 -0.04774194929175908 -0.03803727538124438 -6.6829980232505415 -0.03472478793552191 0.030844980995359785 -6.724372500513076 -0.020108488998074662 -0.0032037345035221365 -0.005570470384205353 0.0028137032556305743 -0.027764014052246207 8.09457277275644 3.458904455395991 -19.22974958044184 -0.018103775928853944 10.44262776641744 0.010769449381457923 -5.583689771679551 -15.676355076405857 3.150432848235213 -0.024513769702852153 -0.010694174716288966 0.020023057150334866 -0.01536084450989774 4.675142868615147 0.00964135036827918 12.457831729630366 -8.203325986573606 6.9084867054459105 0.019829949415845375 46.33867598232193 0.008869702966620355 -4.297812503510221 -14.73796784474288 -3.8182137935461804 0.04216393397071962 -0.020269408003349424 -0.01126361853868478 0.00659987447510535 -10.73088223604353 -0.03459122111505633 
-0.036164514491751454 -0.0213888967010048 -0.018095602986640508 0.006958621104456954 0.0010598365417137407 0.0004693060094315013 5.120588690479795 6.741468140349717 -1.8276802443975355 -1.0769960304370954 4.271763705792283 0.425737916547099 -0.6514318897466158 -0.46961442211739857 1.1725208305856358 0.376592979458572 0.1608272165940457 -0.243251528273279 -0.18292932311298898 13.997461210296452 -2.2430691368831894 -0.41527372004236074 -1.8579111742746768 -6.161593237362723 0.49418568420593467 -19.620619231201353 -0.4801023097938566 -12.158234041474106 3.730136875747118 -17.763267546554925 73.95781539644408 -3.37905167819949 14.477007624592897 12.54771697474591 -6.173002190790027 72.11934056042115 3.9371721355248512 0.035014318166745384 -0.4929003096868823 4.555428300276254 -0.09564486093901892 -1.6154566164242503 0.035952768828734945 0.02763709591532464 -56.2376031376704 0.033796413338118926 0.031130006874960356 -56.21250200705536 -38.731174391425284 -0.044955589046918036 -0.021828179843417683 -0.042435618117110094 -0.027877415559587244 -0.018660606477926944 0.02028060742841796 0.013179846912241269 -0.010346390226889518 -36.71775185013902 -0.022126699356592828 -0.04964754175193046 -0.009743762101038785 -0.008370822731128621 0.03685175084503254 -0.023276774244138265 0.029661993981292913 -0.02541652599091731 -19.743082837650157 -0.00854719448311583 -0.021423578465966195 0.02316371625600792 -0.010034287072493974 -0.03265462968239164 -0.009518342348380346 0.045330247984109805 -0.019911528390750607 24.032813883960742 0.043395935257795316 0.01474622134539616 28.84846294692601 -0.029747693156082746 -0.044736764231896944 28.85843674626736 -0.04085213628045616 -0.017527424288643272 11.174168020202705 2.3928386550813916 15.135124577242754 -70.21879402833778 7.736327982859493 -18.541120543460586 -7.311247438186256 -8.987336966977745 -63.40357303095667 -6.615612216526046 1.4772368096345831 -2.7107707064549906 -0.44556023124615485 0.05735288482862224 -8.103556936725516 -0.0030965959012117404 -0.03971800434679823 44.59531575635366 0.01660131382881677 -0.02209703091914167 44.57226871211989 12.489693551519442 -0.005635457219967775 0.005111722185855084 0.02387297429880551 0.023152904092566557 -0.004843859931033506 0.0013066951937707395 0.013014720156650643 0.02446869169839609 11.072847105192372 -0.005645285494309015 -0.005093511231093099 -0.045036990054401545 -0.048568515918693614 -0.0027097643139018103 0.02940546258030531 -0.04747658963545185 -0.0035975397343774355 4.778541500791387 -0.03419722144447659 -0.02652809143009208 0.026175737349541865 -0.011299755511080761 -0.017349915199307297 -0.03382310251415704 -0.02662860669850702 0.033440947093081354 -5.570664848234174 0.03592597615628439 0.020551007187503464 -6.769838076208146 0.0010717411930300268 -0.009046349125233596 -6.673167253406134 -0.036092942752317336 -0.021374811738576 0.029285834802371097 0.015347980173256694 0.025686058030336256 8.003439863935665 3.5028821920182325 -19.21416314057569 0.032647072354104176 10.347982753232099 0.0013243128356515334 -5.639820808833953 -15.70363102180771 3.237374967714347 -0.006330385084594567 -0.017374365648158294 -0.01303118807551523 0.045780644128593166 4.655199780507076 -0.006195368104916678 12.459853777965485 -8.204253380128227 6.899363493354016 0.025360100956849034 46.36183213849755 -0.009704379166773707 -4.328593961128798 -14.782949043606061 -3.842553995152537 0.017358037722905666 -0.015728890183717047 -0.03517554998951084 -0.019123520600793635 -10.751068322027468 -0.0007243386359149747 
